Raleway-Bold.ufo
<glyph name="numbersign" format="1">
  <advance width="721"/>
  <unicode hex="0023"/>
  <outline>
    <contour>
      <point x="685" y="518" type="line"/>
      <point x="563" y="518" type="line"/>
      <point x="610" y="710" type="line"/>
      <point x="502" y="710" type="line"/>
      <point x="456" y="518" type="line"/>
      <point x="336" y="518" type="line"/>
      <point x="384" y="710" type="line"/>
      <point x="276" y="710" type="line"/>
      <point x="229" y="518" type="line"/>
      <point x="84" y="518" type="line"/>
      <point x="84" y="424" type="line"/>
      <point x="206" y="424" type="line"/>
      <point x="173" y="287" type="line"/>
      <point x="37" y="287" type="line"/>
      <point x="37" y="187" type="line"/>
      <point x="149" y="187" type="line"/>
      <point x="103" y="0" type="line"/>
      <point x="211" y="0" type="line"/>
      <point x="256" y="187" type="line"/>
      <point x="376" y="187" type="line"/>
      <point x="329" y="0" type="line"/>
      <point x="437" y="0" type="line"/>
      <point x="483" y="187" type="line"/>
      <point x="638" y="187" type="line"/>
      <point x="638" y="287" type="line"/>
      <point x="507" y="287" type="line"/>
      <point x="539" y="424" type="line"/>
      <point x="685" y="424" type="line"/>
    </contour>
    <contour>
      <point x="280" y="287" type="line"/>
      <point x="313" y="424" type="line"/>
      <point x="432" y="424" type="line"/>
      <point x="400" y="287" type="line"/>
    </contour>
  </outline>
</glyph>
<glyph name="three" format="1">
  <advance width="558"/>
  <unicode hex="0033"/>
  <outline>
    <contour>
      <point x="381" y="236" type="curve"/>
      <point x="457" y="250"/>
      <point x="508" y="320"/>
      <point x="508" y="399" type="curve" smooth="yes"/>
      <point x="508" y="505"/>
      <point x="415" y="576"/>
      <point x="279" y="576" type="curve" smooth="yes"/>
      <point x="175" y="576"/>
      <point x="79" y="535"/>
      <point x="38" y="474" type="curve"/>
      <point x="122" y="380" type="line"/>
      <point x="153" y="431"/>
      <point x="203" y="460"/>
      <point x="264" y="460" type="curve" smooth="yes"/>
      <point x="324" y="460"/>
      <point x="365" y="433"/>
      <point x="365" y="379" type="curve" smooth="yes"/>
      <point x="365" y="322"/>
      <point x="317" y="281"/>
      <point x="235" y="281" type="curve" smooth="yes"/>
      <point x="204" y="281" type="line"/>
      <point x="204" y="181" type="line"/>
      <point x="232" y="181" type="line" smooth="yes"/>
      <point x="332" y="181"/>
      <point x="381" y="142"/>
      <point x="381" y="73" type="curve" smooth="yes"/>
      <point x="381" y="7"/>
      <point x="337" y="-25"/>
      <point x="256" y="-25" type="curve" smooth="yes"/>
      <point x="185" y="-25"/>
      <point x="138" y="0"/>
      <point x="104" y="44" type="curve"/>
      <point x="28" y="-51" type="line"/>
      <point x="80" y="-113"/>
      <point x="159" y="-147"/>
      <point x="260" y="-147" type="curve" smooth="yes"/>
      <point x="419" y="-147"/>
      <point x="520" y="-67"/>
      <point x="520" y="58" type="curve" smooth="yes"/>
      <point x="520" y="151"/>
      <point x="464" y="222"/>
    </contour>
  </outline>
</glyph>
<glyph name="T" format="1">
  <advance width="619"/>
  <unicode hex="0054"/>
  <outline>
    <contour>
      <point x="315" y="709" type="move" name="top"/>
    </contour>
    <contour>
      <point x="315" y="0" type="move" name="bottom"/>
    </contour>
    <contour>
      <point x="605" y="710" type="line"/>
      <point x="14" y="710" type="line"/>
      <point x="14" y="589" type="line"/>
      <point x="241" y="589" type="line"/>
      <point x="241" y="0" type="line"/>
      <point x="378" y="0" type="line"/>
      <point x="378" y="589" type="line"/>
      <point x="605" y="589" type="line"/>
    </contour>
  </outline>
</glyph>
<glyph name="b" format="1">
  <advance width="634"/>
  <unicode hex="0062"/>
  <outline>
    <contour>
      <point x="359" y="-10" type="curve" smooth="yes"/>
      <point x="499" y="-10"/>
      <point x="604" y="109"/>
      <point x="604" y="260" type="curve" smooth="yes"/>
      <point x="604" y="408"/>
      <point x="511" y="533"/>
      <point x="375" y="533" type="curve" smooth="yes"/>
      <point x="294" y="533"/>
      <point x="232" y="495"/>
      <point x="195" y="432" type="curve"/>
      <point x="195" y="730" type="line"/>
      <point x="61" y="730" type="line"/>
      <point x="61" y="0" type="line"/>
      <point x="178" y="0" type="line"/>
      <point x="178" y="91" type="line"/>
      <point x="214" y="29"/>
      <point x="279" y="-10"/>
    </contour>
    <contour>
      <point x="322" y="104" type="curve" smooth="yes"/>
      <point x="271" y="104"/>
      <point x="213" y="139"/>
      <point x="195" y="192" type="curve"/>
      <point x="195" y="317" type="line"/>
      <point x="220" y="374"/>
      <point x="271" y="419"/>
      <point x="330" y="419" type="curve" smooth="yes"/>
      <point x="410" y="419"/>
      <point x="467" y="344"/>
      <point x="467" y="259" type="curve" smooth="yes"/>
      <point x="467" y="175"/>
      <point x="408" y="104"/>
    </contour>
  </outline>
</glyph>
<glyph name="threesuperior" format="1">
  <advance width="407"/>
  <unicode hex="00B3"/>
  <outline>
    <contour>
      <point x="192" y="383" type="curve" smooth="yes"/>
      <point x="284" y="383"/>
      <point x="373" y="420"/>
      <point x="373" y="502" type="curve" smooth="yes"/>
      <point x="373" y="556"/>
      <point x="333" y="602"/>
      <point x="268" y="611" type="curve"/>
      <point x="327" y="622"/>
      <point x="363" y="653"/>
      <point x="363" y="700" type="curve" smooth="yes"/>
      <point x="363" y="766"/>
      <point x="290" y="816"/>
      <point x="192" y="816" type="curve" smooth="yes"/>
      <point x="126" y="816"/>
      <point x="59" y="794"/>
      <point x="29" y="756" type="curve"/>
      <point x="80" y="692" type="line"/>
      <point x="104" y="722"/>
      <point x="140" y="742"/>
      <point x="193" y="742" type="curve" smooth="yes"/>
      <point x="232" y="742"/>
      <point x="278" y="727"/>
      <point x="278" y="695" type="curve" smooth="yes"/>
      <point x="278" y="659"/>
      <point x="224" y="643"/>
      <point x="143" y="643" type="curve" smooth="yes"/>
      <point x="120" y="643" type="line"/>
      <point x="120" y="570" type="line"/>
      <point x="144" y="570" type="line" smooth="yes"/>
      <point x="236" y="570"/>
      <point x="292" y="553"/>
      <point x="292" y="515" type="curve" smooth="yes"/>
      <point x="292" y="481"/>
      <point x="246" y="463"/>
      <point x="190" y="463" type="curve" smooth="yes"/>
      <point x="122" y="463"/>
      <point x="81" y="498"/>
      <point x="71" y="521" type="curve"/>
      <point x="28" y="462" type="line"/>
      <point x="47" y="411"/>
      <point x="109" y="383"/>
    </contour>
  </outline>
</glyph>
<glyph name="hbar" format="1">
  <advance width="604"/>
  <unicode hex="0127"/>
  <outline>
    <contour>
      <point x="313" y="597" type="line"/>
      <point x="313" y="676" type="line"/>
      <point x="16" y="676" type="line"/>
      <point x="16" y="597" type="line"/>
    </contour>
    <component base="h"/>
  </outline>
</glyph>
<glyph name="Eng" format="1">
  <advance width="750"/>
  <unicode hex="014A"/>
  <outline>
    <contour>
      <point x="541" y="28" type="line"/>
      <point x="541" y="-14" type="line" smooth="yes"/>
      <point x="541" y="-53"/>
      <point x="511" y="-80"/>
      <point x="476" y="-80" type="curve" smooth="yes"/>
      <point x="455" y="-80"/>
      <point x="433" y="-73"/>
      <point x="418" y="-58" type="curve"/>
      <point x="360" y="-149" type="line"/>
      <point x="396" y="-181"/>
      <point x="443" y="-196"/>
      <point x="493" y="-196" type="curve" smooth="yes"/>
      <point x="592" y="-196"/>
      <point x="675" y="-121"/>
      <point x="675" y="-9" type="curve" smooth="yes"/>
      <point x="675" y="709" type="line"/>
      <point x="538" y="709" type="line"/>
      <point x="538" y="250" type="line"/>
      <point x="180" y="710" type="line"/>
      <point x="74" y="710" type="line"/>
      <point x="74" y="0" type="line"/>
      <point x="212" y="0" type="line"/>
      <point x="212" y="451" type="line"/>
    </contour>
  </outline>
</glyph>
<glyph name="tbar" format="1">
  <advance width="385"/>
  <unicode hex="0167"/>
  <outline>
    <contour>
      <point x="336" y="264" type="line"/>
      <point x="336" y="344" type="line"/>
      <point x="23" y="344" type="line"/>
      <point x="23" y="264" type="line"/>
    </contour>
    <component base="t" xOffset="1"/>
  </outline>
</glyph>
<glyph name="caron" format="1">
  <advance width="369"/>
  <unicode hex="02C7"/>
  <outline>
    <contour>
      <point x="185" y="524" type="move" name="_top"/>
    </contour>
    <contour>
      <point x="30" y="698" type="line"/>
      <point x="136" y="597" type="line"/>
      <point x="233" y="597" type="line"/>
      <point x="339" y="698" type="line"/>
      <point x="270" y="730" type="line"/>
      <point x="185" y="667" type="line"/>
      <point x="100" y="730" type="line"/>
    </contour>
  </outline>
</glyph>
<glyph name="dotaccent" format="1">
  <advance width="221"/>
  <unicode hex="02D9"/>
  <outline>
    <contour>
      <point x="110" y="524" type="move" name="_top"/>
    </contour>
    <contour>
      <point x="171" y="604" type="line"/>
      <point x="171" y="730" type="line"/>
      <point x="50" y="730" type="line"/>
      <point x="50" y="604" type="line"/>
    </contour>
  </outline>
</glyph>
<glyph name="uni0411" format="1">
  <advance width="668"/>
  <unicode hex="0411"/>
  <outline>
    <contour>
      <point x="77" y="0" type="line"/>
      <point x="415" y="0" type="line" smooth="yes"/>
      <point x="552" y="0"/>
      <point x="641" y="77"/>
      <point x="641" y="215" type="curve" smooth="yes"/>
      <point x="641" y="350"/>
      <point x="549" y="426"/>
      <point x="410" y="426" type="curve" smooth="yes"/>
      <point x="214" y="426" type="line"/>
      <point x="214" y="589" type="line"/>
      <point x="596" y="589" type="line"/>
      <point x="596" y="710" type="line"/>
      <point x="77" y="710" type="line"/>
    </contour>
    <contour>
      <point x="214" y="117" type="line"/>
      <point x="214" y="314" type="line"/>
      <point x="402" y="314" type="line" smooth="yes"/>
      <point x="467" y="314"/>
      <point x="501" y="274"/>
      <point x="501" y="216" type="curve" smooth="yes"/>
      <point x="501" y="155"/>
      <point x="467" y="117"/>
      <point x="402" y="117" type="curve" smooth="yes"/>
    </contour>
  </outline>
</glyph>
<glyph name="uni0418" format="1">
  <advance width="758"/>
  <unicode hex="0418"/>
  <outline>
    <contour>
      <point x="214" y="710" type="line"/>
      <point x="77" y="710" type="line"/>
      <point x="77" y="0" type="line"/>
      <point x="187" y="0" type="line"/>
      <point x="544" y="487" type="line"/>
      <point x="544" y="0" type="line"/>
      <point x="681" y="0" type="line"/>
      <point x="681" y="710" type="line"/>
      <point x="576" y="710" type="line"/>
      <point x="214" y="212" type="line"/>
    </contour>
  </outline>
</glyph>
<glyph name="uni041B" format="1">
  <advance width="694"/>
  <unicode hex="041B"/>
  <outline>
    <contour>
      <point x="311" y="589" type="line"/>
      <point x="479" y="589" type="line"/>
      <point x="479" y="0" type="line"/>
      <point x="616" y="0" type="line"/>
      <point x="616" y="710" type="line"/>
      <point x="186" y="710" type="line"/>
      <point x="169" y="510" type="line" smooth="yes"/>
      <point x="140" y="171"/>
      <point x="102" y="124"/>
      <point x="10" y="117" type="curve"/>
      <point x="18" y="-7" type="line"/>
      <point x="208" y="-7"/>
      <point x="272" y="117"/>
      <point x="302" y="481" type="curve" smooth="yes"/>
    </contour>
  </outline>
</glyph>
<glyph name="uni0429" format="1">
  <advance width="1033"/>
  <unicode hex="0429"/>
  <outline>
    <contour>
      <point x="771" y="710" type="line"/>
      <point x="771" y="121" type="line"/>
      <point x="562" y="121" type="line"/>
      <point x="562" y="710" type="line"/>
      <point x="424" y="710" type="line"/>
      <point x="424" y="121" type="line"/>
      <point x="215" y="121" type="line"/>
      <point x="215" y="710" type="line"/>
      <point x="78" y="710" type="line"/>
      <point x="78" y="0" type="line"/>
      <point x="909" y="0" type="line"/>
      <point x="909" y="710" type="line"/>
    </contour>
    <contour>
      <point x="885" y="-177" type="line"/>
      <point x="1014" y="-177" type="line"/>
      <point x="1014" y="121" type="line"/>
      <point x="805" y="121" type="line"/>
      <point x="805" y="0" type="line"/>
      <point x="885" y="0" type="line"/>
    </contour>
  </outline>
</glyph>
<glyph name="uni0443" format="1">
  <advance width="550"/>
  <unicode hex="0443"/>
  <outline>
    <contour>
      <point x="76" y="-209" type="line"/>
      <point x="98" y="-223"/>
      <point x="122" y="-228"/>
      <point x="152" y="-228" type="curve" smooth="yes"/>
      <point x="235" y="-228"/>
      <point x="292" y="-182"/>
      <point x="332" y="-68" type="curve" smooth="yes"/>
      <point x="538" y="524" type="line"/>
      <point x="412" y="524" type="line"/>
      <point x="286" y="116" type="line"/>
      <point x="144" y="524" type="line"/>
      <point x="6" y="524" type="line"/>
      <point x="213" y="0" type="line"/>
      <point x="195" y="-84"/>
      <point x="171" y="-112"/>
      <point x="138" y="-112" type="curve" smooth="yes"/>
      <point x="120" y="-112"/>
      <point x="99" y="-107"/>
      <point x="76" y="-94" type="curve"/>
    </contour>
  </outline>
</glyph>
<glyph name="uni0490" format="1">
  <advance width="523"/>
  <unicode hex="0490"/>
  <outline>
    <contour>
      <point x="77" y="0" type="line"/>
      <point x="215" y="0" type="line"/>
      <point x="215" y="589" type="line"/>
      <point x="511" y="589" type="line"/>
      <point x="511" y="875" type="line"/>
      <point x="399" y="875" type="line"/>
      <point x="392" y="710" type="line"/>
      <point x="77" y="710" type="line"/>
    </contour>
  </outline>
</glyph>
<glyph name="eightsuperior" format="1">
  <advance width="420"/>
  <unicode hex="2078"/>
  <outline>
    <contour>
      <point x="388" y="516" type="curve" smooth="yes"/>
      <point x="388" y="566"/>
      <point x="352" y="599"/>
      <point x="302" y="619" type="curve"/>
      <point x="342" y="634"/>
      <point x="372" y="662"/>
      <point x="372" y="701" type="curve" smooth="yes"/>
      <point x="372" y="770"/>
      <point x="287" y="815"/>
      <point x="210" y="815" type="curve" smooth="yes"/>
      <point x="133" y="815"/>
      <point x="48" y="769"/>
      <point x="48" y="700" type="curve" smooth="yes"/>
      <point x="48" y="659"/>
      <point x="81" y="633"/>
      <point x="117" y="619" type="curve"/>
      <point x="72" y="600"/>
      <point x="32" y="570"/>
      <point x="32" y="518" type="curve" smooth="yes"/>
      <point x="32" y="445"/>
      <point x="110" y="388"/>
      <point x="210" y="388" type="curve" smooth="yes"/>
      <point x="306" y="388"/>
      <point x="388" y="441"/>
    </contour>
    <contour>
      <point x="307" y="525" type="curve" smooth="yes"/>
      <point x="307" y="491"/>
      <point x="260" y="467"/>
      <point x="211" y="467" type="curve" smooth="yes"/>
      <point x="164" y="467"/>
      <point x="112" y="489"/>
      <point x="112" y="525" type="curve" smooth="yes"/>
      <point x="112" y="559"/>
      <point x="159" y="583"/>
      <point x="210" y="583" type="curve" smooth="yes"/>
      <point x="258" y="583"/>
      <point x="307" y="561"/>
    </contour>
    <contour>
      <point x="128" y="693" type="curve" smooth="yes"/>
      <point x="128" y="721"/>
      <point x="166" y="738"/>
      <point x="210" y="738" type="curve" smooth="yes"/>
      <point x="252" y="738"/>
      <point x="292" y="721"/>
      <point x="292" y="693" type="curve" smooth="yes"/>
      <point x="292" y="665"/>
      <point x="248" y="648"/>
      <point x="210" y="648" type="curve" smooth="yes"/>
      <point x="171" y="648"/>
      <point x="128" y="664"/>
    </contour>
  </outline>
</glyph>
<glyph name="partialdiff" format="1">
  <advance width="573"/>
  <unicode hex="2202"/>
  <outline>
    <contour>
      <point x="250" y="-10" type="curve" smooth="yes"/>
      <point x="420" y="-10"/>
      <point x="531" y="135"/>
      <point x="531" y="390" type="curve" smooth="yes"/>
      <point x="531" y="610"/>
      <point x="447" y="715"/>
      <point x="295" y="715" type="curve" smooth="yes"/>
      <point x="217" y="715"/>
      <point x="144" y="688"/>
      <point x="94" y="641" type="curve"/>
      <point x="168" y="563" type="line"/>
      <point x="193" y="588"/>
      <point x="242" y="604"/>
      <point x="284" y="604" type="curve" smooth="yes"/>
      <point x="364" y="604"/>
      <point x="408" y="549"/>
      <point x="408" y="406" type="curve" smooth="yes"/>
      <point x="408" y="395"/>
      <point x="407" y="383"/>
      <point x="407" y="371" type="curve"/>
      <point x="385" y="413"/>
      <point x="337" y="438"/>
      <point x="275" y="438" type="curve" smooth="yes"/>
      <point x="141" y="438"/>
      <point x="19" y="331"/>
      <point x="19" y="200" type="curve" smooth="yes"/>
      <point x="19" y="81"/>
      <point x="116" y="-10"/>
    </contour>
    <contour>
      <point x="258" y="94" type="curve" smooth="yes"/>
      <point x="196" y="94"/>
      <point x="147" y="144"/>
      <point x="147" y="207" type="curve" smooth="yes"/>
      <point x="147" y="278"/>
      <point x="208" y="336"/>
      <point x="278" y="336" type="curve" smooth="yes"/>
      <point x="340" y="336"/>
      <point x="389" y="289"/>
      <point x="389" y="227" type="curve" smooth="yes"/>
      <point x="389" y="156"/>
      <point x="326" y="94"/>
    </contour>
  </outline>
</glyph>
<glyph name="approxequal" format="1">
  <advance width="449"/>
  <unicode hex="2248"/>
  <outline>
    <contour>
      <point x="396" y="357" type="line"/>
      <point x="377" y="323"/>
      <point x="343" y="289"/>
      <point x="290" y="289" type="curve" smooth="yes"/>
      <point x="229" y="289"/>
      <point x="203" y="334"/>
      <point x="159" y="334" type="curve" smooth="yes"/>
      <point x="133" y="334"/>
      <point x="121" y="322"/>
      <point x="114" y="309" type="curve"/>
      <point x="53" y="353" type="line"/>
      <point x="71" y="387"/>
      <point x="102" y="419"/>
      <point x="154" y="419" type="curve" smooth="yes"/>
      <point x="215" y="419"/>
      <point x="238" y="372"/>
      <point x="286" y="372" type="curve" smooth="yes"/>
      <point x="313" y="372"/>
      <point x="328" y="385"/>
      <point x="336" y="397" type="curve"/>
    </contour>
    <contour>
      <point x="396" y="199" type="line"/>
      <point x="377" y="167"/>
      <point x="343" y="134"/>
      <point x="290" y="134" type="curve" smooth="yes"/>
      <point x="229" y="134"/>
      <point x="203" y="178"/>
      <point x="159" y="178" type="curve" smooth="yes"/>
      <point x="133" y="178"/>
      <point x="121" y="166"/>
      <point x="114" y="154" type="curve"/>
      <point x="53" y="198" type="line"/>
      <point x="71" y="231"/>
      <point x="102" y="264"/>
      <point x="154" y="264" type="curve" smooth="yes"/>
      <point x="215" y="264"/>
      <point x="238" y="217"/>
      <point x="286" y="217" type="curve" smooth="yes"/>
      <point x="313" y="217"/>
      <point x="328" y="229"/>
      <point x="336" y="242" type="curve"/>
    </contour>
  </outline>
</glyph>
<glyph name="lozenge" format="1">
  <advance width="563"/>
  <unicode hex="25CA"/>
  <outline>
    <contour>
      <point x="208" y="730" type="line"/>
      <point x="22" y="366" type="line"/>
      <point x="208" y="0" type="line"/>
      <point x="356" y="0" type="line"/>
      <point x="542" y="366" type="line"/>
      <point x="356" y="730" type="line"/>
    </contour>
    <contour>
      <point x="290" y="92" type="line"/>
      <point x="149" y="375" type="line"/>
      <point x="281" y="634" type="line"/>
      <point x="422" y="354" type="line"/>
    </contour>
  </outline>
</glyph>
<glyph name="J.sc" format="1">
  <advance width="438"/>
  <outline>
    <contour>
      <point x="361" y="707" type="move" name="top"/>
    </contour>
    <contour>
      <point x="12" y="25" type="line"/>
      <point x="49" y="3"/>
      <point x="93" y="-8"/>
      <point x="147" y="-8" type="curve" smooth="yes"/>
      <point x="352" y="-8"/>
      <point x="377" y="104"/>
      <point x="377" y="275" type="curve" smooth="yes"/>
      <point x="377" y="559" type="line"/>
      <point x="256" y="559" type="line"/>
      <point x="256" y="275" type="line" smooth="yes"/>
      <point x="256" y="154"/>
      <point x="244" y="99"/>
      <point x="147" y="99" type="curve" smooth="yes"/>
      <point x="96" y="99"/>
      <point x="55" y="116"/>
      <point x="39" y="124" type="curve"/>
    </contour>
  </outline>
</glyph>
<glyph name="six.denominator" format="1">
  <advance width="424"/>
  <outline>
    <contour>
      <point x="396" y="141" type="curve" smooth="yes"/>
      <point x="396" y="59"/>
      <point x="318" y="-5"/>
      <point x="215" y="-5" type="curve" smooth="yes"/>
      <point x="105" y="-5"/>
      <point x="34" y="66"/>
      <point x="34" y="191" type="curve" smooth="yes"/>
      <point x="34" y="341"/>
      <point x="109" y="425"/>
      <point x="226" y="425" type="curve" smooth="yes"/>
      <point x="287" y="425"/>
      <point x="342" y="402"/>
      <point x="375" y="360" type="curve"/>
      <point x="329" y="305" type="line"/>
      <point x="308" y="333"/>
      <point x="267" y="349"/>
      <point x="223" y="349" type="curve" smooth="yes"/>
      <point x="155" y="349"/>
      <point x="110" y="310"/>
      <point x="108" y="241" type="curve"/>
      <point x="129" y="267"/>
      <point x="177" y="281"/>
      <point x="219" y="281" type="curve" smooth="yes"/>
      <point x="322" y="281"/>
      <point x="396" y="220"/>
    </contour>
    <contour>
      <point x="217" y="67" type="curve" smooth="yes"/>
      <point x="273" y="67"/>
      <point x="320" y="101"/>
      <point x="320" y="140" type="curve" smooth="yes"/>
      <point x="320" y="180"/>
      <point x="274" y="212"/>
      <point x="216" y="212" type="curve" smooth="yes"/>
      <point x="159" y="212"/>
      <point x="112" y="180"/>
      <point x="112" y="141" type="curve" smooth="yes"/>
      <point x="112" y="101"/>
      <point x="161" y="67"/>
    </contour>
  </outline>
</glyph>
